<svg xmlns="http://www.w3.org/2000/svg" xmlns:xlink="http://www.w3.org/1999/xlink" width="24" height="15" viewBox="0 0 24 15"><defs><path id="kphpa" d="M300.62 7479a7.56 7.56 0 0 1-7.62-7.5c0-4.14 3.41-7.5 7.62-7.5 1.98 0 3.78.75 5.13 1.97l-2.24 2.16a4.5 4.5 0 0 0-7.38 3.37c0 2.44 2.01 4.41 4.49 4.41a4.48 4.48 0 0 0 4.19-2.84h-4.3v-3.14h7.55a7.56 7.56 0 0 1-7.45 9.07zm16.38-6.93h-2.65v2.61h-1.93v-2.61h-2.65v-1.9h2.65v-2.61h1.93v2.61H317z"/></defs><g><g opacity=".3" transform="translate(-293 -7464)"><use fill="#26272d" xlink:href="#kphpa"/></g></g></svg>