<svg xmlns="http://www.w3.org/2000/svg" xmlns:xlink="http://www.w3.org/1999/xlink" width="14" height="17" viewBox="0 0 14 17"><defs><path id="7djxa" d="M386.74 7475.25c-.47 2.34-1.05 4.58-2.76 5.76-.53-3.54.78-6.2 1.38-9.03-1.03-1.64.12-4.94 2.3-4.13 2.68 1-2.32 6.1 1.03 6.74 3.5.67 4.93-5.74 2.76-7.82-3.13-3.01-9.13-.07-8.39 4.24.18 1.05 1.33 1.37.46 2.82-2-.42-2.6-1.91-2.53-3.91.13-3.27 3.1-5.55 6.1-5.87 3.78-.4 7.32 1.31 7.81 4.67.55 3.8-1.7 7.9-5.75 7.61-1.1-.08-1.55-.59-2.41-1.08z"/></defs><g><g opacity=".3" transform="translate(-381 -7464)"><use fill="#26272d" xlink:href="#7djxa"/></g></g></svg>